<svg height='200' width='200'  fill="#000000" xmlns="http://www.w3.org/2000/svg" xmlns:xlink="http://www.w3.org/1999/xlink" version="1.1" x="0px" y="0px" viewBox="0 0 1000 1000" enable-background="new 0 0 1000 1000" xml:space="preserve"><g><path d="M785.9,421.4c0.9-0.3,1.9-0.6,2.8-0.8c0.1,0,0.3,0,0.4,0C789.8,420.6,786.7,421.3,785.9,421.4z"></path><path d="M247.9,563.1c0.2,0,0.3,0,0.5,0C248.4,563.1,247.9,563.1,247.9,563.1z"></path><path d="M704.3,337.5c0,0.2,0,0.5,0,0.7C704.3,341,704.3,338.6,704.3,337.5z"></path><path d="M541,251.5c-0.1,0-0.2,0-0.3,0C539.5,251.3,544.9,251.7,541,251.5z"></path><path d="M228.7,326.7c-10.3-7.3-21.5-10.1-32.3-15.9c-20.2-11-26.4-30.9-21.2-51.4c6.1-24,10.4-50.8,37.4-59.3   c13.9-4.4,28.4,0.2,42.3-3.6c8.3-2.3,22.9-14.7,27.5-22.1c7.3-11.5,25.9-23.1,35.7-33.6c8-8.5,22.5-16,32.9-21.2   c22.3-11,46.6-22.8,70.5-29.7c7.6-2.2,14.4-7.5,22.3-7.9c2-0.1,64.7-12.6,70.3-13.5c43.6-6.6,111,5.2,119.1,6.8   c23.7,4.6,46.3,16.2,68.1,27.2c15.8,8,33.2,29,42.3,44c12.7,21.1,22.9,39.3,31.6,62.1c3.6,9.5,6.9,25.3,7,35.3   c0.1,10.1,4,20.2,3.9,29.8c-0.1,10.1-4.7,23.4-7,33.4c-1.6,6.9-7.2,15.6-7.2,22.5c0,6.6-10.3,16.4-11.7,24.3   c-1.3,7.3,1.9,18.5,1.9,26.4c0.1,11.1-4.5,21.7-4.3,32.4c0-1.5-4.4,21.8,1.1,15.8c8.3-9.3,22.7-15.6,34.7-17.6   c19-3.2,12.1,13.6,12.3,22.5c0.5,19.5-9.6,41.4-22.5,55.6c-8.9,9.9-11.3,16.1-25,19.6c-9.3,2.4-18.1,4.8-26.9,8.7   c-24.6,10.8-8.6,43.4,0.7,61.4c6.8,13.3,13,24.9,24.3,34.9c7.1,6.3,19,17.4,15,28.3c-2.9,7.7-11.6,16-3.1,24.5   c9,8.9,17.6,19,27.5,26.8c6.8,5.4,35.8,18.3,29.8,30.5c-5.4,11.2-14.1,18.2-22.7,26.9c-15.1,15.5-32.1,30.8-50.1,42.8   c-12.3,8.3-24.7,16.3-36.8,25c-7.6,5.5-37.8,28.5-45.7,31.1c-10.4,3.4-23.2,11.2-33.2,16.4c-44,22.9-90.2,44.3-137.8,57.1   c-24.3,6.5-54.8,18.7-78.4,2c-6.6-4.7-22.9-13-13-23.2c6.1-6.3,14.5-20.8,17-29c2.5-8.2,8.8-24.7,7.9-33.2   c-0.4-3.6,5.8-25.2,7.6-27.5c6.6-8.3,1-25.3,2.8-35c2.1-11.5,2.9-20.2-3.7-31.5c-14.1-24-38.4-32.5-60.4-47.9   c-21.6-15.1-40.2-15.9-66.4-16c-25.9,0-59.2,14.7-74.1-15.5c-5.3-10.8-3.2-26.8,2.2-36.8c6.7-12.3,0.5-30-6-41.1   c-3.8-6.4-3.5-14.8-7.2-21.7c-3-5.6,2.4-7.3,1.7-13.3c-0.5-4.5,7-19.5-3.5-20.6c-7.7-0.8-30,1.2-32.8-8.9   c-3.5-12.9-3.4-15.6,0.4-28.4c4.1-13.8,11-29.8,18.1-42.3c2.5-4.4,2.5-11.9,5.9-15.3c5.4-5.6,10.7-11.3,14.6-18   c2.6-4.3,6.6-7.5,8.8-12.1c4.1-8.6-2.2-11.4-1.5-19c0.9-9.8-11.7-17-10-29.4C231.6,345.3,242.7,336.6,228.7,326.7z M763.5,494.8   c14.7-5.1,18.5-22.5,25.8-33c4.5-6.6,11.5-40.8-0.2-41.2c-0.1,0-0.2,0-0.4,0c-3,0.7-3.4,0.9-2.8,0.8c-15.4,5.1-28.2,22.5-39.7,33.5   c-6.3,6-14,13.2-14.7,22.4c-0.2,2.7-8.1,17.7,2.4,13.7c6.4-2.4,37.8-34.2,37.9-34.2c8.4,2.3-9.7,26.2-12.3,29   c-6.7,7.2-17.7,11.8-27.4,9.9c-6.4-1.2-14.3,1.2-14.9,8.9C715.9,521.2,755.8,497.5,763.5,494.8z M714.4,412.6   c0,13.6,0,27.3,0.1,40.9c0,3-0.7,24.1,8.8,14.4c3.7-3.8,22.3-41,17.3-43.8c-1.8-1-13.5,21.6-15.8,13.8   c-3.9-13.5,10.7-26.2,6.7-40.3c0-16.3-0.6-24.5,9.2-5.6c0.8,1.6-4.5,39.9,5.9,18.6c7.1-14.6,1.8-29.7,1.7-44.8   c0-6.9-1.7-40.2-11.2-41.9c-13.3-2.5-12.6,29.8-14.3,36.5C718.2,379.2,714.4,392.8,714.4,412.6z M716.3,337   C716.3,337,716.2,337,716.3,337C716.2,337,716.3,337,716.3,337z M434.1,887c-3,7.2-18.3,20.5-7.4,27.6c3.8,2.5,26.1,2.3,29.8-0.2   c6.4-4.5,8,1.2,13.8,0.9c4.9-0.2,12-6,16.2-8.3c5.7-3.1-2.5-4.7-5.2-4.3c-5.5,0.8-9.3,4-15.1,3.1c-3-0.5-13.3-5.1-5.3-9   c10.8-5.2,22.5-8.2,33.7-12.8c11.6-4.7,19.1-13.5,29.3-20.1c10.5-6.8,22.7-11.6,33.8-17.3c20.7-10.6,40.9-20.9,59.7-35.9   c9.7-7.7,17-15.5,28-21.8c7.6-4.4,17.5-9.3,23.5-15.8c15.8-17,38.9-25,57.1-39.4c8.6-6.8,16.6,4.4,3.2,10.1   c-7.7,3.2-17.5,10.3-23.7,16c-14.3,13.3-30.2,26.9-47,37.3c-10.2,6.4-20.6,14.2-30,21.7c-7,5.6-16.7,9-21.9,16.5   c-10.8,15.4-41,22.6-57.4,30.8c-17.6,8.8-35.8,18.3-49,33c17,0.2,35.7-11.3,52.1-15.9c15.6-4.4,33.1-12,46.9-19.7   c27-15,60.3-21.9,83.6-43.2c13.6-12.4,31.9-19.7,45.8-31.9c10.5-9.2,21.9-17.6,33.1-26.2c10.7-8.2,34.4-22.4,39-35.1   c4.2-11.6-12.5-21.5-21.5-26.9c-17-10.1-23.7-30.8-35.7-45.4c-8.1-10-35.7-2.6-46.2,0.1c-15,3.8-32.6,2.2-46.8,9.7   c-15.6,8.2-31.9,14.3-47,23.7c-8.6,5.4-33.5,16.8-37.5,26c-5.1,12-18.8,16.4-25,27.8c-9.2,16.8-25,27.4-37.3,40.7   c-1.9,2.1-22.9,27-17.9,28.1c1.7,0.3,25-19.6,28.3-21.7c11.2-7.3,24-18.3,36-23.5c10.8-4.6,18.6-17.9,29.7-23.1   c10.2-4.8,20.9-16.9,29.3-24.2c19.4-16.8,43.8-39.4,71.8-39.9c19.9-0.4,1.8,9.1-2.3,13.9c-5.2,6-21.1,5.6-28.4,9.7   c-23.8,13.4-39.1,33.5-60.4,49.4c-21.8,16.3-44.4,30.5-66.6,46.4c-10.2,7.3-19.5,12.8-28.4,20.8c-3,2.7-18.3,17-20.4,13.8   c-6.3-9.8-6.7-17.3-5.5-28.6c0.2-2.2-5.1-20.5-10-17.2c-0.8,0.5,1.2,27.8,1.1,31.2c-0.1,7.2,1.4,25.1-3.5,35.9   c-2.5,5.6-4,23-8.4,26.9c-6.8,6-1.8-15.2-0.7-17.2c6.2-10.6,6-28.8,5.9-40.6c-0.1-10-4.1,9-4.2,9.5   C444.2,849.9,441.1,870,434.1,887z M239.8,312.2c6-2.9,11-23.9,5.4-28.6c-5-4.2-36.2-4.4-41.6-0.8c-8.2,5.4-15-6.8-0.3-11.7   c11.6-3.8,26.6-4.5,39-2.5c27.2,4.4,45.3,20,69.7,30.7c52.7,23.1,98.9,57.3,158.3,57c25.5-0.1,44.7,3.9,58,27.2   c11.7,20.6,12.9,54.1-3.4,72.6c-31.2,35.6-35.8,109.5-24.1,152.3c3.2,11.7,8,21.3,14.7,31.3c8.5,12.9,13.8,11,26.7,11.6   c11.9,0.5,27.3-11,37.6-15.9c7.6-3.6,23.5-11.5,31.6-11.3c11.2,0.3,36.5-10.9,46.5-2.8c8.5,6.8,28.1,2.8,38.1,2.8   c57.9,0-22.5,15.9-22.5,10.1c-31.7,0-69.4,3.1-98.1,18.4c-13.3,7.1-30.7,20.6-46.3,13.5c-12-5.4-27.5-22.6-33.1-34.6   c-6.2-13.3-12.1-24.4-12.1-39.3c0-12.8-2.8-25.1-3.5-37.1c-0.6-10.3-0.9-17.3-15.6-10c-11.3,5.7-9.1,20.7-12.5,31.5   c-9.7,30.8-25.4,39.4-52.8,53.9c-9.7,5.1-20.8,4.8-31.3,7.4c-5.8,1.4-20,3.1-24.2,6.7c-5.3,4.6-29,13.7-35.6,13.3   c-4.6-0.3-21.5,8.3-14.1-3.7c9.5-15.7,44.6-20.1,60.8-24.8c26.7-7.7,58.3-10.5,75.2-35.1c11-16,16.2-41.6,16.2-60.8   c0-3.7,1.7-19.9,10-12.9c3.3,2.8,3.5,7,6.6,10c7.8,7.4,19.9-7.8,23.6-13.6c5.9-9.1,4.9-21,9.9-30.1c6.5-11.9-5-19.3-9.4-4.9   c-2.1,6.9-10.7,8.6-16.3,5.1c-6.2-3.8-9,2.5-13.6,5.2c-10.1,6-23.5,2-29.4-8c-6.4-10.9-4.7-19.7,0.8-30c4-7.4,6.2,16.4,6.1,16.3   c3.1,2,30.2,10.4,27.2,1.7c-3-8.9-14.7-11.4-0.3-18.4c9.5-4.7,11,6.6,20,1.8c5.8-3.1,24.1-21.3,22.6-5.6   c-0.5,5.7-7.1,10.5-6.5,16.3c0.2,2,1.9,6.7,4.8,1.4c5.5-10.1,11.7-19,15.9-29.7c6.5-16.5,2.6-64.8-21.8-68.2   c-18.9-2.6,3.4,20.8,7.4,26.4c3.5,4.8-9.1,20.2-14.1,21c-16.8,2.7,0.1-13.5,2.2-16.7c2.7-4.1-8-21.9-11.2-24.6   c-6.2-5.4-9.9,4.5-5,6.5c4.5,1.8,5.2,6.2,7.4,9.8c5,8-9.2,13.9-15.1,4c-1.2-2.1-7.2-9-6.8-11.4c0.5-3.1,4.1-6.6,1.2-9.7   c-9.9-10.5-10.3-2.2-13,4.8c-2,5.1-9.3-14.2-15.6-13.5c-12.3,1.3,10.7,20.2-0.7,23.1c-3.2,0.8-8.5-15.3-10.5-10   c-3.3,8.9,9.1,17.5,14.6,21.5c10.2,7.4,29.2,16.8,11.4,28.8c-7.8,5.3-10.9-16.8-14.4-20.3c-10.2-10.2-14-18.7-18.5-32.4   c-4-12.2-5.9-22.1-19.9-24.9c-25-5,19.1,20.8,12.3,29.2c-6.4,7.9-25-9.8-28-15.5c-6.4-12.4,12.1-11.1-3.6-19.1   c-27.5-14-55.1-28.2-82.6-42.6c-5.6-2.9-25.7-19.8-31.7-14.9c-4.7,3.8-9.9,20.9-9,26.9c1.2,7.9-16.4,36.2,1.4,36.6   c9.9,0.2,13.4,2.1,22.4,0.3c16.6-3.3,48.6,3.9,59.2,17.7c7,9.2,14.6,21.6,19.7,32c5.1,10.3-8.4,4.4-11.6-0.4   C328.9,379,311.9,370,283.4,370c-7.3,0-17.8,2-24.8-0.5c-4-1.5-7.5-5.6-11.5-7.5c-8-3.8,0.7,17.5,1.5,19.5   c5.8,13.9,6,24.3,0.1,38.2c-4.9,11.6-16,18.5-21.8,29.6c-9,17.1-13.1,38.5-22.6,55.7c-4.1,7.4-0.4,22.6,10.7,21.3   c5.4-0.6,4-7.9,5.9-11.2c3-5.5,8-4.9,13.1-6.7c13.4-4.7,19.9,10.4,10.8,10.7c-1.4,0-20.8,0.1-11.4,5.6c14.7,8.5,9.8,13.7,11.4,27.7   c0.3,2.9,19.3,10.3,23.5,14.3c5.9,5.6,10,9.2,18.5,5.7c5.9-2.4,14.2,10.2,17.4,13.3c2.6,2.6,1.5,5.9-1.8,7.3   c-4,1.7-11.1-4.7-14.3-6.3c-5.5-2.6-56.7-16.1-44.1,5.9c5.5,9.7,14.4,21.3,12.2,33.3c-1.8,10.3-14,23.8-8.7,34.1   c7.1,13.9,23.4,11.2,36.2,11.8c14.5-5.9,30.1-2.9,45.2-3c24-0.1,48.8,9.8,68.6,24c19.8,14.2,39.8,24.6,53.6,46.1   c7.4,11.6,9.7,26,17.6,37.2c5.5,7.9,1.3-9.6,1.4-10.2c0.8-9.2-5-20.4-6.8-29.3c-1.6-7.4-4.4-26.4-8.8-32.2   c-3.3-4.4-3.4-36.2-0.9-41c4.6-9,4.4-19.7,7.1-29c0.6-2.3,9.6-18.5,9.5-7.9c0,11.1-3.5,20.2-3.4,30.9c0.2,11-10.6,33.1-2.7,43.2   c5.5,6.9,3.7,21.9,7.2,30.2c4.6,11,6.7,20.9,9.6,32.5c0.5,2.1,4.4,23.6,8.4,18.6c17.3-21.4,34-42.6,53.4-62.7   c15.9-16.4,38-37.6,58.9-47.1c20.9-9.5,46-24.7,69.9-24.1c8.5,0.2,21.6-4.4,29.9-6.5c5.9-1.5,11.4-4.6,17.7-3.7   c6.2,1,10.2,4,16.8,3.5c16.5-1.3-5.7-7.7,5.4-15.4c6.4-4.4-13.4-21.8-16.7-26.1c-12.9-16.6-17.6-37.1-22.9-58.9   c-5.4-22,13.4-56.5-12.1-68.1c-11.6-5.3-24.5,1.8-35.7,2.2c-11.9,0.4-24.9,1.9-35.6-3.9c-9.5-5.1-18.6-7.7-27.1-15.5   c-8.5-7.8-12.8-15.7-24.6-20.7c-11.8-5.1-0.9-17.5,4.8-21.9c11.1-8.6,24-4.5,35.3-9.2c12.5-5.3-17.1-14.6-17.6-15.2   c-7.2-8.2-20.1-13.9-28.5-21.5c-5-4.5-43.7-44.4-21.3-44.6c12.3-0.1,26.7-0.7,38.1,4.4c4.9,2.2,25.7,14.8,30,8.2   c2.4-3.7-13.6-18.9-15.8-21.9c-10.2-13.9-13.4-4.9-27.2-12.7c-3.7-2.1-24.4,4.5-29.4,5.4c-13.6,2.4-26.1,3.1-40.3,3   c-21.4-0.1-43.8-3.8-60.7-17.5c-11.3-9.2-23.4-12-35.1-19.8c-12.1-8-1.2-13.3,8-17.4c12.3-5.4,24.8,1.6,37-2.5   c26.2-8.9-1-15.7-6.6-18.9c-5.1-2.8-6.2-4.2-12-6.3c-8.9-3.2-20.4-10.8-26.8-17.7c-8.4-9-17.7-15.3-26.7-23.3   c-11.3-10.1-10.9-16.1-0.4-23.8c21.4-15.7,55.7-17.2,73,6.5c1.9,2.6,17.5,15,21,13.8c4-1.3-1.2-27.4-2-31.9   c-4.2-22,6.7-39.2,29.1-23.7c10.3,7.1,14.4,14.1,22.5,23.1c7.8,8.7,18.2,14.3,19.7,27c0.9,7.5,4.2,35.3,13.2,42.6   c4.2,3.4,8.5-1.6,12.8-1.5c30.7,0.6,39.9,16.1,62.8,32.7c11.3,8.2,1-23.2,0.5-24.8c-3.5-9.6,0.5-22.4,7.1-30   c4.4-5.2,11.7-16.6,18.6-18.4c10.8-3,18.9,14.5,21.6,21.8c7.9,20.9,14.9,42.5,23,63.7c2.6,6.9,19.7,73,22,74.5   c-1-0.9,11.6-26.7,15.4-29.7c8.8-6.9,17.3,14.8,20.8,19.4c5.3,7.1,16.4-50.7,16.4-59.2c0-18.8-1.4-47.5-10.4-64.5   c-12.7-23.8-21.4-52.5-42.4-70.9c-9.1-8-17-13.8-26.7-20.6c-9.2-6.4-19.9-8.6-28.9-14.1c-16.1-9.9-36.1-10.8-53.6-15.2   c-10.9-2.7-70.7-4.9-78.1-3.3c-43.3,9.4-89.1,10.7-129.6,32.9c-22,12.1-45.5,19.9-66.2,33.3c-11.2,7.2-19.7,17.7-29,27   c-7.4,7.4-20.9,14.1-25.9,22.9c-5.5,9.6,20.3,14.7,26,17.2c9.8,4.4,18.3,16.3,27.9,19.1c5.5,1.5,11.4,11.9,14.6,16.2   c8.1,11.1,16.2,22,25.1,32.4c9,10.5,18.3,20.7,27.7,31.1c8.6,9.6,22.1,14.1,30.3,23.5c6.6,7.6-9.9,3.8-12.7,2.2   c-8.8-4.9-19.2-13.6-26.2-20.7c-35.8-36.3-64-79.8-111.3-100.8c-22-9.7-61.8-9.9-78.5,8.8c-8,8.9-18.5,43.7-14.7,55.6   c4.7,14.9,17.7,18,29.1,25.8C216.8,306.6,237.8,313.2,239.8,312.2z M254,569.8c9.5-1.7-5.6-10.5-5.6-6.7c-0.3,0-0.5,0-0.5,0   C235.7,563.3,244.7,571.4,254,569.8z M688.8,288c-3.8-16-8.9-32-16.5-46.7c-5.6-10.8-6.2-40.9-16.6-46.8   c-14.6-8.3-21.1,21.9-18.8,30.6c3.1,11.7,5.1,28,10.8,38.8c3.2,5.9,10.5,11.4,14.7,16.7c4.8,6.1,9,15.2,14.8,20.2   c6.1,5.2,17.4,33.8,17.1,41.8c-0.1,1.9,3.9,12.2,7.3,10.2c4.6-2.8,2.7-10,2.7-14.5c0-1.6,0-1.4,0-0.7   C703.8,319.2,692.8,304.8,688.8,288z M692.7,367.6c-3.7-6.4-5.7-16-7.8-23.1c-9-29.3-26.1-66.2-57.2-78.9   c-14.2-5.8-20.9-20.7-34.5-27.5c-3.4-1.7-22.6-14.3-25.9-9.4c-2.6,3.9,4.3,15.1,4.8,19.4c3.7,27.2,26.8,72.4,54.5,83.3   c11.1,4.4,38.5,17.5,44.5,28.2c3.2,5.7,26,36.8,7.6,21.7c-12.3-10-20.6-20.9-35.8-28.3c-6.4-3.1-15.8-7.2-23.1-6.7   c-4.6,0.3-10.8,5.5-15.1,2.7c-12-7.7-34.4-16.6-48.7-16.2c-23.1,0.7,4.6,17.4,12.1,25.1c15.7,16.1,33.3,23.9,53.4,33.7   c11.7,5.7,30.9,13.4,44.1,12.2c4.7-1.6,35.2,17,34.8,10.2c-0.3-4.4-16.2-21.6-12.3-24.8c4.3-3.5,8.1,10.2,13.4,5.8   c4.7-3.9,6.9-12.9,4.8-18.5C703.3,368.9,697.3,375.6,692.7,367.6z M516.9,240.7c-4.9-2.5-9.8-4.8-13.7-8.8   c-6.7-6.8-11.6-15-16.8-22.9c-5.1-7.8-11.7-9.7-18.4-15.4c-11.8-10-28.4-11.4-39.7-23.4c-6-6.4-25.9-10.8-33.3-5   c-4.5,3.5-15.1-1.1-15.9,7.7c-0.5,5.4,7.5,9.3,10.9,11.6c21.8,14.8,42.2,45.7,71.5,46.8c26.9,1,52.7,16.4,79.2,20.2   c0.1,0,0.2,0,0.3,0c6.3,0.2,14.2,5.1,19,0.1c5.9-6.2-8.1-15.5-11.6-18.9c-6-6-12.9-11.5-17.4-18.8c-4.2-6.9-4.5-32.8-8.4-37.8   c-3.1-4-2.7-9.4-6.9-13.7c-8.5-8.7-16.6-20.5-27.4-25.9c-23-11.7-14.9,15.1-14.8,27.7c0,14,9.7,20.9,15.3,32.4   c7.4,15.1,15.6,30.2,30.6,38.8C523.7,237.9,521.7,243.1,516.9,240.7z M559.4,263.9c-6.7-6.8-18.1-5.9-26.6-5.8   c-9.8,0.1-18.8-3.3-28.8-3.4c-9-0.1-18.4-3.3-28-3.5c-6.8-0.2-15.2,2.5-22.1,3.5c-4.8,0.7-48.2,3.6-38.8,15   c3.1,3.8,17.3,6.6,22.6,10.2c5.2,3.7,11.4,8.4,17.2,11.1c3.9,1.8,42.8,7.9,42.8,7.9c18.2,0,33.9-6.7,51.7-6.8   c5.6,0,25.3,3.5,25.9-6.7c0.3-5.6-9.7-9.2-13.7-10.3C539.4,269.1,563.9,268.5,559.4,263.9z M675.1,445.2c-8.1-2.2-18.2-4.3-26.6-4   c-2.3,0.1-27.5-4.9-20.4-9.3c14.4-8.8,47.3,6.8,61.7,9.6c15.5,2.9,7.8-10.3-1-14.7c-9.9-4.9-13.9-9.1-25.5-9.2   c-13.4-0.1-24,1-36.2-4.7c-6.5-3-19.8-4.4-26.4-1.5C581.5,420,573.1,428,593,443c9.3,7,16.1,13.9,27.2,17.5   c2.8,0.9,29.8,1.9,29.8,1.1c12.7,0,25.2-1.1,37.2,4.1c3.6,1.6,22.9,9.9,20.2-0.1C701.9,445.9,693.3,450.3,675.1,445.2z"></path><path d="M288.9,423.2c-4.7,4.1-8.4-1.7-11.7-3.7c-3.9-2.2-6.1,8.3,1.2,8.3c2,0,22-1.8,18.2,5c-10.1,18,12.4,3.8,16.9,14.2   c5,11.4-30.6,6.2-35.1-3.7c-2.6-5.6-10.8-14.1-11.6-19.7c-1.4-9.7,7.6-7.1,7.5-11.3c0-2.2-6.3-1.7-7.4-4.9   c-2.4-7.1,6.4-10.6,11.6-10.8c2.9-0.1,22.4,7.9,23.4,6.5c2.7-4.1-12.4-9.4-14.4-10.6c-8.2-4.8-11.1,0.9-18.8,1.3   c-6.9,0.4-8.4-1.8-3.7-6.8c4.2-4.5,9.6-3.4,15.3-3.4c9.4-2.1,25.4,5,31.4,12.4c5.3,6.5-5.5,8.4-1.8,12.1   c3.5,3.4,35.5,18.1,22.9,22.5c-9.4,3.3-30.7-13.7-38.3-17.8C289.1,409.8,291.2,421.2,288.9,423.2z"></path><path d="M280.2,383.6C277.6,383.6,287.7,381.9,280.2,383.6L280.2,383.6z"></path><path d="M386.1,671.6C393.8,672.2,384.1,671.6,386.1,671.6L386.1,671.6z"></path><path d="M386.1,671.6c-21.8,0,5.9-12.6,10.8-16.4c10.2-7.9,20.5-16.4,29.3-25.9c6.4-7,13.6-11.4,19.3-19.1c1.4-1.9,3.7-17.5,9-15.4   c11.9,4.6-15.6,37.1-17.4,41.4C431.6,649.1,400.9,672.8,386.1,671.6z"></path><path d="M287.5,524.6c0.1-10.6-7.7-22.1-11.5-31.6c-1.5-3.7-14-11.8-11.8-15.5c5.7-9.4,21.5,11.8,23.6,16.1   c4.8,9.9,4.1,20.9,8.4,30.6c4.3,9.8,11.1,19.5,14.6,29.2c0.5,1.3,24,19.6,9,19.7C303.7,573.7,287.4,536.9,287.5,524.6z"></path><path d="M319.8,573.2C323.2,573.2,317,573.3,319.8,573.2L319.8,573.2z"></path><path d="M263.2,525.9C270.7,525.8,261.2,526.1,263.2,525.9L263.2,525.9z"></path><path d="M276.3,500.5c4.1,9.9-0.8,25.3-13,25.4c-11.5,1.1,1.7-15.8,0.2-22.5c-0.2-0.8-17.7-24.8-7.1-19.5   C263.9,487.7,272.8,492,276.3,500.5z"></path><path d="M440.6,437.6c5.4-0.5,9,0.6,14.3-2c7.1-3.6,8.7-5.5,8.9-13.5c0.1-3.9-3.9-8.4-3.3-11.6c2-10.5,14,11.5,13.2,17.1   c-1.4,10-16,17.3-25.2,16.8C445.6,444.4,433.1,438.3,440.6,437.6z"></path><path d="M448.5,444.4C456.4,444.8,447.1,444.4,448.5,444.4L448.5,444.4z"></path><path d="M265,600.3C267.4,600.4,262.8,600.4,265,600.3L265,600.3z"></path><path d="M265,600.3c-5.5,0.3-5.4-6.4,0.1-6.4C270.8,593.9,270.7,600.5,265,600.3z"></path><path d="M585.7,263.4C585.6,264.5,585.6,259,585.7,263.4L585.7,263.4z"></path><path d="M654.5,321.6c-2.2,1.3-28.2-28.2-32.7-31.5c-6.4-4.8-36.7-16.2-36.1-26.7c-0.3-16.8,39.8,21.5,43.9,24.4   C633.9,290.8,662.5,316.9,654.5,321.6z"></path><path d="M657.3,379.8c-3.1-0.8-28.5-12.1-27.4-14.9C633.1,357,674.6,381.3,657.3,379.8z"></path><path d="M657.3,379.8C660.5,380.1,657.5,379.8,657.3,379.8L657.3,379.8z"></path><path d="M515.8,223.5c-4.3-5.5-7.7-12-11-18.1c-6.2-11.5-11.6-23.6-17.3-35.4c6.9-10.2,15.4,15.2,19.6,18.4   c9.3,7.1,17.9,27.5,20.4,38.5C529.8,237,515.2,222.8,515.8,223.5z"></path><path d="M482.2,230.9c-9.4,0.9-25.6-16.2-31.9-21.7c-4.2-3.8-16.2-7.5-18.6-11.9c-2.4-4.7,3.3-5.1,5.8-4.2   c13.2,4.5,22.1,17.3,33.6,24.4C471.4,217.6,496.2,232.6,482.2,230.9z"></path><path d="M539.8,274.5c-10.1,2.1-21.7,3.7-32,3.8c-5.9,0-18.3-2.4-7.6-9.2c5.2-3.3,8.5,4.7,15.4-0.4c2.3-1.7,11.2-0.2,13.9-0.2   C529.5,265.5,555.9,271.2,539.8,274.5z"></path></g></svg>