<svg height='200' width='200'  fill="#000000" xmlns="http://www.w3.org/2000/svg" xmlns:xlink="http://www.w3.org/1999/xlink" version="1.1" x="0px" y="0px" viewBox="0 0 100 100" style="enable-background:new 0 0 100 100;" xml:space="preserve"><style type="text/css">
	.st0{fill:none;stroke:#000000;stroke-miterlimit:10;}
	.st1{fill:none;stroke:#000000;stroke-width:5;stroke-miterlimit:10;}
</style><path class="st0" d="M12.9,42.5l1.5-2.2c0.4-0.6,1.2-1,1.9-1l1.1,0c0.2,0,0.5,0,0.7,0.1l2.1,0.7c0.4,0.1,0.8,0.4,1,0.7l2,2.4  c0.4,0.4,0.5,1,0.5,1.5l0,1.8c0,0.6-0.3,1.2-0.7,1.6l-2.1,2.1c-0.6,0.5-1.3,0.7-2.1,0.6L15,49.8c-0.6-0.1-1.1-0.5-1.4-1L12.5,47  c-0.3-0.5-0.4-1.1-0.3-1.7l0.4-2.1C12.6,43,12.8,42.7,12.9,42.5z"></path><path class="st0" d="M24.6,25.5l1.5-2.2c0.4-0.6,1.2-1,1.9-1l1.1,0c0.2,0,0.5,0,0.7,0.1l2.1,0.7c0.4,0.1,0.8,0.4,1,0.7l2,2.4  c0.4,0.4,0.5,1,0.5,1.5l0,1.8c0,0.6-0.3,1.2-0.7,1.6l-2.1,2.1c-0.6,0.5-1.3,0.7-2.1,0.6l-3.8-0.9c-0.6-0.1-1.1-0.5-1.4-1L24.1,30  c-0.3-0.5-0.4-1.1-0.3-1.7l0.4-2.1C24.3,26,24.4,25.7,24.6,25.5z"></path><path class="st0" d="M34.8,42.5l1.5-2.2c0.4-0.6,1.2-1,1.9-1l1.1,0c0.2,0,0.5,0,0.7,0.1l2.1,0.7c0.4,0.1,0.8,0.4,1,0.7l2,2.4  c0.4,0.4,0.5,1,0.5,1.5l0,1.8c0,0.6-0.3,1.2-0.7,1.6l-2.1,2.1c-0.6,0.5-1.3,0.7-2.1,0.6l-3.8-0.9c-0.6-0.1-1.1-0.5-1.4-1L34.4,47  c-0.3-0.5-0.4-1.1-0.3-1.7l0.4-2.1C34.5,43,34.7,42.7,34.8,42.5z"></path><path class="st0" d="M37.5,60.8l1.5-2.2c0.4-0.6,1.2-1,1.9-1l1.1,0c0.2,0,0.5,0,0.7,0.1l2.1,0.7c0.4,0.1,0.8,0.4,1,0.7l2,2.4  c0.4,0.4,0.5,1,0.5,1.5l0,1.8c0,0.6-0.3,1.2-0.7,1.6l-2.1,2.1c-0.6,0.5-1.3,0.7-2.1,0.6l-3.8-0.9c-0.6-0.1-1.1-0.5-1.4-1L37,65.4  c-0.3-0.5-0.4-1.1-0.3-1.7l0.4-2.1C37.2,61.3,37.3,61,37.5,60.8z"></path><path class="st0" d="M14.7,60.8l1.5-2.2c0.4-0.6,1.2-1,1.9-1l1.1,0c0.2,0,0.5,0,0.7,0.1l2.1,0.7c0.4,0.1,0.8,0.4,1,0.7l2,2.4  c0.4,0.4,0.5,1,0.5,1.5l0,1.8c0,0.6-0.3,1.2-0.7,1.6l-2.1,2.1c-0.6,0.5-1.3,0.7-2.1,0.6l-3.8-0.9c-0.6-0.1-1.1-0.5-1.4-1l-1.1-1.8  c-0.3-0.5-0.4-1.1-0.3-1.7l0.4-2.1C14.4,61.3,14.5,61,14.7,60.8z"></path><path class="st0" d="M53.9,53.4l0.3-2.7c0.1-0.8,0.6-1.4,1.2-1.8l1-0.5c0.2-0.1,0.4-0.2,0.7-0.2l2.2-0.4c0.4-0.1,0.9,0,1.2,0.1  l2.9,1.2c0.5,0.2,0.9,0.6,1.2,1.1l0.8,1.6c0.3,0.5,0.3,1.2,0.1,1.8l-0.9,2.8c-0.2,0.7-0.8,1.3-1.6,1.5l-3.8,1  c-0.6,0.2-1.2,0.1-1.7-0.2l-1.8-1c-0.5-0.3-0.9-0.8-1-1.3l-0.6-2C53.9,54,53.8,53.7,53.9,53.4z"></path><path class="st0" d="M58.5,28l2.6,0.6c0.8,0.2,1.4,0.7,1.6,1.5l0.4,1.1c0.1,0.2,0.1,0.5,0.1,0.7l0.1,2.2c0,0.4-0.1,0.8-0.3,1.2  L61.4,38c-0.3,0.5-0.7,0.8-1.2,1l-1.7,0.6c-0.6,0.2-1.2,0.2-1.8-0.1l-2.7-1.3c-0.7-0.3-1.2-1-1.3-1.8l-0.5-3.9  c-0.1-0.6,0.1-1.2,0.5-1.7l1.3-1.6c0.4-0.5,0.9-0.8,1.5-0.9l2.1-0.3C57.9,28,58.2,28,58.5,28z"></path><path class="st0" d="M43.3,15l1.5-2.2c0.4-0.6,1.2-1,1.9-1l1.1,0c0.2,0,0.5,0,0.7,0.1l2.1,0.7c0.4,0.1,0.8,0.4,1,0.7l2,2.4  c0.4,0.4,0.5,1,0.5,1.5l0,1.8c0,0.6-0.3,1.2-0.7,1.6l-2.1,2.1c-0.6,0.5-1.3,0.7-2.1,0.6l-3.8-0.9c-0.6-0.1-1.1-0.5-1.4-1l-1.1-1.8  c-0.3-0.5-0.4-1.1-0.3-1.7l0.4-2.1C43.1,15.6,43.2,15.3,43.3,15z"></path><path class="st0" d="M63.4,15.6l1.5-2.2c0.4-0.6,1.2-1,1.9-1l1.1,0c0.2,0,0.5,0,0.7,0.1l2.1,0.7c0.4,0.1,0.8,0.4,1,0.7l2,2.4  c0.4,0.4,0.5,1,0.5,1.5l0,1.8c0,0.6-0.3,1.2-0.7,1.6l-2.1,2.1c-0.6,0.5-1.3,0.7-2.1,0.6L65.4,23c-0.6-0.1-1.1-0.5-1.4-1l-1.1-1.8  c-0.3-0.5-0.4-1.1-0.3-1.7l0.4-2.1C63.1,16.1,63.2,15.9,63.4,15.6z"></path><path class="st0" d="M75.1,31.5l1.5-2.2c0.4-0.6,1.2-1,1.9-1l1.1,0c0.2,0,0.5,0,0.7,0.1l2.1,0.7c0.4,0.1,0.8,0.4,1,0.7l2,2.4  c0.4,0.4,0.5,1,0.5,1.5l0,1.8c0,0.6-0.3,1.2-0.7,1.6L83,39.1c-0.6,0.5-1.3,0.7-2.1,0.6l-3.8-0.9c-0.6-0.1-1.1-0.5-1.4-1L74.6,36  c-0.3-0.5-0.4-1.1-0.3-1.7l0.4-2.1C74.8,32,74.9,31.7,75.1,31.5z"></path><path class="st1" d="M141,18.2l12.2-5.5c3.5-1.6,7.6-1.3,10.9,0.8l4.7,3c1,0.6,1.9,1.4,2.6,2.3l6.9,8.4c1.4,1.6,2.2,3.6,2.5,5.7  l2.1,15.3c0.4,2.7-0.3,5.5-1.8,7.8l-4.9,7.5c-1.7,2.5-4.3,4.3-7.2,4.9l-14.5,3c-3.8,0.8-7.7-0.4-10.4-3.1l-13.8-13.8  c-2.1-2.1-3.3-5-3.3-8.1V36.3c0-2.9,1.1-5.7,3.1-7.9l7.3-7.7C138.4,19.7,139.7,18.8,141,18.2z"></path><path class="st0" d="M36.7,79.8l1.5-2.2c0.4-0.6,1.2-1,1.9-1l1.1,0c0.2,0,0.5,0,0.7,0.1l2.1,0.7c0.4,0.1,0.8,0.4,1,0.7l2,2.4  c0.4,0.4,0.5,1,0.5,1.5l0,1.8c0,0.6-0.3,1.2-0.7,1.6l-2.1,2.1c-0.6,0.5-1.3,0.7-2.1,0.6l-3.8-0.9c-0.6-0.1-1.1-0.5-1.4-1l-1.1-1.8  c-0.3-0.5-0.4-1.1-0.3-1.7l0.4-2.1C36.4,80.3,36.6,80,36.7,79.8z"></path><path class="st0" d="M58,72.7l0.3-2.7c0.1-0.8,0.6-1.4,1.2-1.8l1-0.5c0.2-0.1,0.4-0.2,0.7-0.2l2.2-0.4c0.4-0.1,0.9,0,1.2,0.1  l2.9,1.2c0.5,0.2,0.9,0.6,1.2,1.1l0.8,1.6c0.3,0.5,0.3,1.2,0.1,1.8l-0.9,2.8c-0.2,0.7-0.8,1.3-1.6,1.5l-3.8,1  c-0.6,0.2-1.2,0.1-1.7-0.2l-1.8-1c-0.5-0.3-0.9-0.8-1-1.3l-0.6-2C58,73.3,57.9,73,58,72.7z"></path><path class="st0" d="M71.1,53.4l0.3-2.7c0.1-0.8,0.6-1.4,1.2-1.8l1-0.5c0.2-0.1,0.4-0.2,0.7-0.2l2.2-0.4c0.4-0.1,0.9,0,1.2,0.1  l2.9,1.2c0.5,0.2,0.9,0.6,1.2,1.1l0.8,1.6c0.3,0.5,0.3,1.2,0.1,1.8l-0.9,2.8c-0.2,0.7-0.8,1.3-1.6,1.5l-3.8,1  c-0.6,0.2-1.2,0.1-1.7-0.2l-1.8-1c-0.5-0.3-0.9-0.8-1-1.3l-0.6-2C71.1,54,71,53.7,71.1,53.4z"></path></svg>